<svg width="1256" height="1256" viewBox="0 0 1256 1256" fill="none" xmlns="http://www.w3.org/2000/svg">
<circle cx="628" cy="628" r="628" fill="#31374A"/>
<g filter="url(#filter0_d_261_256)">
<path d="M1155.95 640.391L1058.94 618.362C1057.54 560.846 1045.49 505.186 1023.08 452.786L1098.43 390.292C1110.5 380.28 1112.35 362.145 1102.59 349.783L999.729 219.681C995.025 213.747 988.23 209.957 980.793 209.162C973.333 208.367 965.963 210.613 960.146 215.418L886.619 276.39C841.737 241.86 791.68 217.042 737.73 202.548V106.804C737.73 90.8926 725.14 78 709.602 78H546.12C530.582 78 517.992 90.8926 517.992 106.804V202.629C462.86 217.469 411.835 243.104 366.2 278.879L291.997 218.425C286.158 213.667 278.743 211.501 271.295 212.353C263.891 213.217 257.107 217.065 252.46 223.045L150.681 354.046C146.045 360.025 143.907 367.653 144.751 375.234C145.595 382.826 149.353 389.762 155.192 394.509L231.285 456.472C209.379 509.022 197.801 564.706 196.879 622.141L99.8021 645.092C92.5337 646.797 86.233 651.418 82.2725 657.893C78.312 664.368 77.0406 672.179 78.7283 679.634L115.52 842.768C119.019 858.265 134.074 867.92 149.252 864.359L249.22 840.729C275.244 889.649 309.549 932.51 351.247 968.25L306.298 1064.72C303.091 1071.63 302.686 1079.54 305.173 1086.74C307.659 1093.94 312.846 1099.85 319.574 1103.12L467.136 1175.19C470.95 1177.06 475.09 1178 479.242 1178C482.404 1178 485.588 1177.45 488.637 1176.33C495.669 1173.78 501.418 1168.47 504.636 1161.59L550.125 1063.9C602.59 1073.72 657.103 1073.51 709.264 1063.31L755.541 1160.46C762.337 1174.75 779.202 1180.71 793.154 1173.71L940.097 1100.33C946.825 1096.98 951.955 1091.04 954.386 1083.81C956.816 1076.59 956.343 1068.67 953.069 1061.8L907.366 965.899C948.828 929.767 982.807 886.562 1008.45 837.341L1108.39 860.039C1123.63 863.461 1138.6 853.656 1141.93 838.159L1177.33 674.714C1180.68 659.229 1171.11 643.836 1155.95 640.391ZM812.855 629.642C812.855 734.05 729.922 818.976 627.962 818.976C526.014 818.976 443.069 734.05 443.069 629.642C443.069 525.245 526.014 440.308 627.962 440.308C729.922 440.308 812.855 525.245 812.855 629.642Z" fill="white"/>
</g>
<defs>
<filter id="filter0_d_261_256" x="78" y="78" width="1146.6" height="1140.6" filterUnits="userSpaceOnUse" color-interpolation-filters="sRGB">
<feFlood flood-opacity="0" result="BackgroundImageFix"/>
<feColorMatrix in="SourceAlpha" type="matrix" values="0 0 0 0 0 0 0 0 0 0 0 0 0 0 0 0 0 0 127 0" result="hardAlpha"/>
<feOffset dx="35" dy="29"/>
<feGaussianBlur stdDeviation="5.8"/>
<feComposite in2="hardAlpha" operator="out"/>
<feColorMatrix type="matrix" values="0 0 0 0 0 0 0 0 0 0 0 0 0 0 0 0 0 0 0.3 0"/>
<feBlend mode="normal" in2="BackgroundImageFix" result="effect1_dropShadow_261_256"/>
<feBlend mode="normal" in="SourceGraphic" in2="effect1_dropShadow_261_256" result="shape"/>
</filter>
</defs>
</svg>
